# xmcd CD database file
#
# Track frame offsets:
#	187
#	21839
#	46164
#
# Disc length: 790 seconds
#
# Revision: 0
# Processed by: cddbd v1.5.1PL2 Copyright (c) Steve Scherf et al.
# Submitted via: CDex 1.51
#
DISCID=1a031403
DTITLE=柳ジョージ - やっぱり彼女はスゴかった〜カネボウ’レヴューイメージソング〜
DYEAR=1995
DGENRE=JPop
TTITLE0=やっぱり彼女はスゴかった〜カネボウ’レヴューイメージソング〜
TTITLE1=ＭｏｔｈｅｒＴｒｅｅ
TTITLE2=やっぱり彼女はスゴかった〜カネボウ’レヴューＣＭソング〜
EXTD=YEAR: 1995/10/4
EXTT0=
EXTT1=
EXTT2=
PLAYORDER=
